<svg width="48" height="48" viewBox="48 0 1 66" fill="none" xmlns="http://www.w3.org/2000/svg">
<g filter="url(#filter0_bd_1_709)">
<circle cx="42" cy="31" r="24" fill="white" fill-opacity="0.48"/>
<circle cx="42" cy="31" r="23.5" stroke="url(#paint0_linear_1_709)" stroke-opacity="0.7"/>
</g>
<path fill-rule="evenodd" clip-rule="evenodd" d="M38 39.9985H46C48.2091 39.9985 50 38.2076 50 35.9985V29.6057C50 28.2869 49.3499 27.0528 48.2623 26.3069L44.2623 23.5637C42.899 22.6287 41.101 22.6287 39.7377 23.5637L35.7377 26.3069C34.6501 27.0528 34 28.2869 34 29.6057V35.9985C34 38.2076 35.7909 39.9985 38 39.9985ZM39.5 29.9996C38.9477 29.9996 38.5 30.4473 38.5 30.9996V34.9996C38.5 35.5519 38.9477 35.9996 39.5 35.9996H40.5C41.0523 35.9996 41.5 35.5519 41.5 34.9996V30.9996C41.5 30.4473 41.0523 29.9996 40.5 29.9996H39.5Z" fill="url(#paint1_linear_1_709)"/>
<defs>
<filter id="filter0_bd_1_709" x="-34" y="-45" width="152" height="152" filterUnits="userSpaceOnUse" color-interpolation-filters="sRGB">
<feFlood flood-opacity="0" result="BackgroundImageFix"/>
<feGaussianBlur in="BackgroundImageFix" stdDeviation="26"/>
<feComposite in2="SourceAlpha" operator="in" result="effect1_backgroundBlur_1_709"/>
<feColorMatrix in="SourceAlpha" type="matrix" values="0 0 0 0 0 0 0 0 0 0 0 0 0 0 0 0 0 0 127 0" result="hardAlpha"/>
<feOffset dx="6" dy="17"/>
<feGaussianBlur stdDeviation="12"/>
<feColorMatrix type="matrix" values="0 0 0 0 0.285833 0 0 0 0 0.29225 0 0 0 0 0.35 0 0 0 0.04 0"/>
<feBlend mode="normal" in2="effect1_backgroundBlur_1_709" result="effect2_dropShadow_1_709"/>
<feBlend mode="normal" in="SourceGraphic" in2="effect2_dropShadow_1_709" result="shape"/>
</filter>
<linearGradient id="paint0_linear_1_709" x1="42" y1="7" x2="42" y2="78.7931" gradientUnits="userSpaceOnUse">
<stop stop-color="white"/>
<stop offset="1" stop-color="white" stop-opacity="0"/>
</linearGradient>
<linearGradient id="paint1_linear_1_709" x1="51.1733" y1="41.9691" x2="38.2236" y2="16.8872" gradientUnits="userSpaceOnUse">
<stop stop-color="#32C764"/>
<stop offset="1" stop-color="#3ADA69"/>
</linearGradient>
</defs>
</svg>
