<svg width="48" height="48" viewBox="48 0 1 66" fill="none" xmlns="http://www.w3.org/2000/svg">
<g filter="url(#filter0_bd_4_8426)">
<circle cx="42" cy="31" r="24" fill="white" fill-opacity="0.48"/>
<circle cx="42" cy="31" r="23.5" stroke="url(#paint0_linear_4_8426)" stroke-opacity="0.7"/>
</g>
<path fill-rule="evenodd" clip-rule="evenodd" d="M51 25C51 23.3431 49.6569 22 48 22H36C34.3431 22 33 23.3431 33 25V33C33 34.6569 34.3431 36 36 36H39.017L41.0887 39.1255C41.1777 39.2597 41.2977 39.3704 41.4386 39.4483C41.922 39.7153 42.5304 39.54 42.7975 39.0566L44.486 36H48C49.6569 36 51 34.6569 51 33V25ZM47 26H38C37.4477 26 37 26.4477 37 27C37 27.5523 37.4477 28 38 28H47C47.5523 28 48 27.5523 48 27C48 26.4477 47.5523 26 47 26ZM43 30H38C37.4477 30 37 30.4477 37 31C37 31.5523 37.4477 32 38 32H43C43.5523 32 44 31.5523 44 31C44 30.4477 43.5523 30 43 30Z" fill="url(#paint1_linear_4_8426)"/>
<defs>
<filter id="filter0_bd_4_8426" x="-34" y="-45" width="152" height="152" filterUnits="userSpaceOnUse" color-interpolation-filters="sRGB">
<feFlood flood-opacity="0" result="BackgroundImageFix"/>
<feGaussianBlur in="BackgroundImageFix" stdDeviation="26"/>
<feComposite in2="SourceAlpha" operator="in" result="effect1_backgroundBlur_4_8426"/>
<feColorMatrix in="SourceAlpha" type="matrix" values="0 0 0 0 0 0 0 0 0 0 0 0 0 0 0 0 0 0 127 0" result="hardAlpha"/>
<feOffset dx="6" dy="17"/>
<feGaussianBlur stdDeviation="12"/>
<feColorMatrix type="matrix" values="0 0 0 0 0.285833 0 0 0 0 0.29225 0 0 0 0 0.35 0 0 0 0.04 0"/>
<feBlend mode="normal" in2="effect1_backgroundBlur_4_8426" result="effect2_dropShadow_4_8426"/>
<feBlend mode="normal" in="SourceGraphic" in2="effect2_dropShadow_4_8426" result="shape"/>
</filter>
<linearGradient id="paint0_linear_4_8426" x1="42" y1="7" x2="42" y2="78.7931" gradientUnits="userSpaceOnUse">
<stop stop-color="white"/>
<stop offset="1" stop-color="white" stop-opacity="0"/>
</linearGradient>
<linearGradient id="paint1_linear_4_8426" x1="28.1739" y1="27.2097" x2="43.7851" y2="42.4507" gradientUnits="userSpaceOnUse">
<stop stop-color="#3DD595"/>
<stop offset="1" stop-color="#2BBB87"/>
</linearGradient>
</defs>
</svg>
