<svg width="96" height="96" viewBox="48 0 1 66" fill="none" xmlns="http://www.w3.org/2000/svg">
<g filter="url(#filter0_bd_223_104)">
<circle cx="42" cy="31" r="24" fill="white" fill-opacity="0.48"/>
<circle cx="42" cy="31" r="23.5" stroke="url(#paint0_linear_223_104)" stroke-opacity="0.7"/>
</g>
<path fill-rule="evenodd" clip-rule="evenodd" d="M42.4419 40.5963L49.3511 29.9919C49.6225 29.5753 49.5125 29.0125 49.1054 28.7347C48.9598 28.6355 48.7888 28.5825 48.6139 28.5825H43.1813V21.9066C43.1813 21.4059 42.7847 21 42.2953 21C41.9991 21 41.7225 21.1515 41.5581 21.4037L34.6489 32.0081C34.3775 32.4247 34.4875 32.9875 34.8946 33.2653C35.0402 33.3645 35.2112 33.4175 35.3861 33.4175H40.8187V40.0934C40.8187 40.5941 41.2153 41 41.7047 41C42.0009 41 42.2775 40.8485 42.4419 40.5963Z" fill="url(#paint1_linear_223_104)"/>
<defs>
<filter id="filter0_bd_223_104" x="-34" y="-45" width="152" height="152" filterUnits="userSpaceOnUse" color-interpolation-filters="sRGB">
<feFlood flood-opacity="0" result="BackgroundImageFix"/>
<feGaussianBlur in="BackgroundImageFix" stdDeviation="26"/>
<feComposite in2="SourceAlpha" operator="in" result="effect1_backgroundBlur_223_104"/>
<feColorMatrix in="SourceAlpha" type="matrix" values="0 0 0 0 0 0 0 0 0 0 0 0 0 0 0 0 0 0 127 0" result="hardAlpha"/>
<feOffset dx="6" dy="17"/>
<feGaussianBlur stdDeviation="12"/>
<feColorMatrix type="matrix" values="0 0 0 0 0.285833 0 0 0 0 0.29225 0 0 0 0 0.35 0 0 0 0.04 0"/>
<feBlend mode="normal" in2="effect1_backgroundBlur_223_104" result="effect2_dropShadow_223_104"/>
<feBlend mode="normal" in="SourceGraphic" in2="effect2_dropShadow_223_104" result="shape"/>
</filter>
<linearGradient id="paint0_linear_223_104" x1="42" y1="7" x2="42" y2="78.7931" gradientUnits="userSpaceOnUse">
<stop stop-color="white"/>
<stop offset="1" stop-color="white" stop-opacity="0"/>
</linearGradient>
<linearGradient id="paint1_linear_223_104" x1="42" y1="21" x2="42" y2="41" gradientUnits="userSpaceOnUse">
<stop stop-color="#FFD600"/>
<stop offset="1" stop-color="#FFCC00"/>
</linearGradient>
</defs>
</svg>
