<svg width="48" height="48" viewBox="48 0 1 66" fill="none" xmlns="http://www.w3.org/2000/svg">
<g filter="url(#filter0_bd_223_26)">
<circle cx="42" cy="31" r="24" fill="white" fill-opacity="0.48"/>
<circle cx="42" cy="31" r="23.5" stroke="url(#paint0_linear_223_26)" stroke-opacity="0.7"/>
</g>
<path d="M41.9998 20.9166C36.3369 20.9166 31.7332 25.5204 31.7332 31.1833C31.7332 36.8462 36.3369 41.45 41.9998 41.45C47.6627 41.45 52.2665 36.8462 52.2665 31.1833C52.2665 25.5204 47.6627 20.9166 41.9998 20.9166ZM38.628 31.8101C38.628 32.3072 38.2174 32.7179 37.7202 32.7179H36.4882C35.9911 32.7179 35.5805 32.3072 35.5805 31.8101V30.5781C35.5805 30.081 35.9911 29.6703 36.4882 29.6703H37.7202C38.2174 29.6703 38.628 30.081 38.628 30.5781V31.8101ZM43.5128 31.8101C43.5128 32.3072 43.1021 32.7179 42.605 32.7179H41.373C40.8759 32.7179 40.4652 32.3072 40.4652 31.8101V30.5781C40.4652 30.081 40.8759 29.6703 41.373 29.6703H42.605C43.1021 29.6703 43.5128 30.081 43.5128 30.5781V31.8101ZM48.3976 31.8101C48.3976 32.3072 47.9869 32.7179 47.4898 32.7179H46.2578C45.7607 32.7179 45.35 32.3072 45.35 31.8101V30.5781C45.35 30.081 45.7607 29.6703 46.2578 29.6703H47.4898C47.9869 29.6703 48.3976 30.081 48.3976 30.5781V31.8101Z" fill="url(#paint1_linear_223_26)"/>
<defs>
<filter id="filter0_bd_223_26" x="-34" y="-45" width="152" height="152" filterUnits="userSpaceOnUse" color-interpolation-filters="sRGB">
<feFlood flood-opacity="0" result="BackgroundImageFix"/>
<feGaussianBlur in="BackgroundImageFix" stdDeviation="26"/>
<feComposite in2="SourceAlpha" operator="in" result="effect1_backgroundBlur_223_26"/>
<feColorMatrix in="SourceAlpha" type="matrix" values="0 0 0 0 0 0 0 0 0 0 0 0 0 0 0 0 0 0 127 0" result="hardAlpha"/>
<feOffset dx="6" dy="17"/>
<feGaussianBlur stdDeviation="12"/>
<feColorMatrix type="matrix" values="0 0 0 0 0.285833 0 0 0 0 0.29225 0 0 0 0 0.35 0 0 0 0.04 0"/>
<feBlend mode="normal" in2="effect1_backgroundBlur_223_26" result="effect2_dropShadow_223_26"/>
<feBlend mode="normal" in="SourceGraphic" in2="effect2_dropShadow_223_26" result="shape"/>
</filter>
<linearGradient id="paint0_linear_223_26" x1="42" y1="7" x2="42" y2="78.7931" gradientUnits="userSpaceOnUse">
<stop stop-color="white"/>
<stop offset="1" stop-color="white" stop-opacity="0"/>
</linearGradient>
<linearGradient id="paint1_linear_223_26" x1="26.2278" y1="27.0039" x2="44.453" y2="44.3749" gradientUnits="userSpaceOnUse">
<stop stop-color="#3DD595"/>
<stop offset="1" stop-color="#2BBB87"/>
</linearGradient>
</defs>
</svg>
