<svg width="96" height="96" viewBox="48 0 1 66" fill="none" xmlns="http://www.w3.org/2000/svg">
<g filter="url(#filter0_bd_223_64)">
<circle cx="42" cy="31" r="24" fill="white" fill-opacity="0.48"/>
<circle cx="42" cy="31" r="23.5" stroke="url(#paint0_linear_223_64)" stroke-opacity="0.7"/>
</g>
<path d="M42.9806 24.1782C42.6316 23.7513 42.2992 23.3586 42 23C41.7008 23.3757 41.3684 23.7684 41.0194 24.1782C38.9086 26.6713 36 30.1377 36 32.8356C36 34.5432 36.6648 36.08 37.7618 37.19C38.8421 38.2999 40.3379 39 42 39C43.662 39 45.1579 38.317 46.2382 37.19C47.3186 36.08 48 34.5261 48 32.8356C48 30.1377 45.0914 26.6884 42.9806 24.1782Z" fill="url(#paint1_linear_223_64)"/>
<defs>
<filter id="filter0_bd_223_64" x="-34" y="-45" width="152" height="152" filterUnits="userSpaceOnUse" color-interpolation-filters="sRGB">
<feFlood flood-opacity="0" result="BackgroundImageFix"/>
<feGaussianBlur in="BackgroundImageFix" stdDeviation="26"/>
<feComposite in2="SourceAlpha" operator="in" result="effect1_backgroundBlur_223_64"/>
<feColorMatrix in="SourceAlpha" type="matrix" values="0 0 0 0 0 0 0 0 0 0 0 0 0 0 0 0 0 0 127 0" result="hardAlpha"/>
<feOffset dx="6" dy="17"/>
<feGaussianBlur stdDeviation="12"/>
<feColorMatrix type="matrix" values="0 0 0 0 0.285833 0 0 0 0 0.29225 0 0 0 0 0.35 0 0 0 0.04 0"/>
<feBlend mode="normal" in2="effect1_backgroundBlur_223_64" result="effect2_dropShadow_223_64"/>
<feBlend mode="normal" in="SourceGraphic" in2="effect2_dropShadow_223_64" result="shape"/>
</filter>
<linearGradient id="paint0_linear_223_64" x1="42" y1="7" x2="42" y2="78.7931" gradientUnits="userSpaceOnUse">
<stop stop-color="white"/>
<stop offset="1" stop-color="white" stop-opacity="0"/>
</linearGradient>
<linearGradient id="paint1_linear_223_64" x1="56.5714" y1="5.69903" x2="72.7795" y2="59.7738" gradientUnits="userSpaceOnUse">
<stop stop-color="#6ADBFF"/>
<stop offset="1" stop-color="#545BFF"/>
</linearGradient>
</defs>
</svg>
