<svg width="96" height="96" viewBox="48 0 1 66" fill="none" xmlns="http://www.w3.org/2000/svg">
<g filter="url(#filter0_bd_223_88)">
<circle cx="42" cy="31" r="24" fill="white" fill-opacity="0.48"/>
<circle cx="42" cy="31" r="23.5" stroke="url(#paint0_linear_223_88)" stroke-opacity="0.7"/>
</g>
<path fill-rule="evenodd" clip-rule="evenodd" d="M34.6411 29.6419H34.5583H34.2881C33.9558 29.6419 33.6416 29.75 33.3954 29.9762C32.887 30.4406 32.871 31.2492 33.3353 31.7477C33.5775 32.0079 33.9198 32.142 34.2741 32.142H34.9847H36.5H38.5757H40.9897H43.4897H45.8577H47.8414H49.2185C49.2773 32.142 49.3359 32.1422 49.3943 32.1424C49.5111 32.1429 49.6276 32.1433 49.7449 32.142C50.4153 32.1342 50.9616 31.6054 50.9963 30.9415C50.9989 30.9276 51.0002 30.9128 51 30.897C50.992 30.2624 50.5156 29.728 49.885 29.6519C49.801 29.6419 49.7189 29.6419 49.6348 29.6419H49.3589C49.2902 27.5585 48.475 25.6733 47.1996 24.2876C45.8659 22.8386 44.025 21.9399 42 21.9399C38.0384 21.9399 34.7814 25.3796 34.6411 29.6419ZM46.0738 33.3027C45.2831 33.3047 44.4825 33.4328 43.7459 33.7271C43.6086 33.7817 43.4755 33.8466 43.3425 33.9114C43.1438 34.0083 42.9452 34.1051 42.733 34.1675C42.3847 34.2695 42.0184 34.2996 41.6581 34.2535C41.474 34.2295 41.2918 34.1835 41.1157 34.1214C40.9892 34.0773 40.8714 34.0181 40.7535 33.9588C40.7109 33.9374 40.6683 33.9159 40.6253 33.8952C40.289 33.7311 39.9367 33.603 39.5764 33.5089C38.8158 33.3127 38.0131 33.2567 37.2325 33.3388C35.9934 33.4669 34.6503 33.9333 33.8637 34.9541C33.5434 35.3684 33.3452 35.8769 33.3613 36.4053C33.3773 36.9398 33.6015 37.4322 33.9377 37.8405C34.7584 38.8353 36.1336 39.2757 37.3766 39.3758C38.1612 39.4398 38.9659 39.3698 39.7225 39.1516C40.0768 39.0495 40.4231 38.9134 40.7494 38.7432C41.0756 38.5731 41.4279 38.459 41.7982 38.433C42.1706 38.407 42.5409 38.457 42.8932 38.5831C43.0152 38.6276 43.13 38.6855 43.2451 38.7435C43.2904 38.7664 43.3357 38.7892 43.3816 38.8113C43.5497 38.8914 43.7218 38.9654 43.896 39.0275C44.6366 39.2977 45.4373 39.4098 46.2239 39.3938C47.515 39.3658 48.9261 38.9834 49.8649 38.0487C50.2352 37.6784 50.5255 37.206 50.6055 36.6835C50.6856 36.1611 50.5695 35.6387 50.2933 35.1883C49.6407 34.1274 48.3457 33.579 47.1627 33.3908C46.8024 33.3328 46.4381 33.3047 46.0738 33.3027ZM37.9191 37.3743C37.5388 37.3723 37.1565 37.3142 36.8042 37.1661C36.552 37.062 36.2938 36.8939 36.1577 36.6797C36.1417 36.6537 36.1257 36.6257 36.1116 36.5976L36.1116 36.5976L36.1116 36.5976C36.1056 36.5856 36.0996 36.5736 36.0936 36.5596C36.1006 36.5747 36.0988 36.5703 36.0961 36.5635C36.0941 36.5586 36.0916 36.5524 36.0916 36.5516C36.0676 36.4815 36.0576 36.4335 36.0536 36.3895C36.0496 36.3214 36.0536 36.2814 36.0636 36.2433C36.0696 36.2173 36.0756 36.1913 36.0856 36.1653L36.0919 36.145C36.094 36.1383 36.0951 36.1349 36.0964 36.1315C36.0978 36.1279 36.0995 36.1244 36.103 36.1172L36.1116 36.0992C36.2337 35.857 36.4679 35.6909 36.7241 35.5668C37.3827 35.2525 38.2174 35.2465 38.9 35.4807C39.1822 35.5768 39.4584 35.7269 39.6426 35.9611C39.7026 36.0392 39.7527 36.1352 39.7767 36.2413C39.7867 36.2834 39.7907 36.3174 39.7867 36.3875C39.7867 36.3999 39.7851 36.4107 39.7834 36.4228L39.7827 36.4275L39.7844 36.4135L39.7839 36.4162C39.7832 36.421 39.7817 36.4305 39.7807 36.4335C39.7727 36.4695 39.7627 36.5056 39.7527 36.5396L39.7502 36.5474L39.7502 36.5474L39.7502 36.5474C39.749 36.5512 39.7481 36.5543 39.7473 36.5569C39.7462 36.5601 39.7453 36.5627 39.7443 36.5652C39.7421 36.5706 39.7393 36.5758 39.7332 36.5873L39.7246 36.6036C39.7066 36.6377 39.6866 36.6717 39.6646 36.7037C39.6326 36.7498 39.5885 36.7978 39.5365 36.8498C39.4204 36.9619 39.2783 37.048 39.1281 37.1221C38.7538 37.3042 38.3295 37.3723 37.9191 37.3743ZM44.9585 37.1661C45.3108 37.3142 45.6931 37.3723 46.0734 37.3743C46.4838 37.3723 46.9081 37.3042 47.2824 37.1221C47.4326 37.048 47.5747 36.9619 47.6908 36.8498C47.7428 36.7978 47.7869 36.7498 47.8189 36.7037C47.8409 36.6717 47.8609 36.6377 47.8789 36.6036L47.8875 36.5873L47.8876 36.5872L47.8876 36.5872C47.8936 36.5758 47.8964 36.5706 47.8986 36.5652C47.8998 36.5621 47.9009 36.5589 47.9023 36.5544L47.907 36.5396C47.917 36.5056 47.927 36.4695 47.935 36.4335C47.936 36.4305 47.9375 36.421 47.9382 36.4163L47.9382 36.4162L47.9387 36.4135L47.937 36.4275L47.9377 36.4228C47.9394 36.4107 47.941 36.3999 47.941 36.3875C47.945 36.3174 47.941 36.2834 47.931 36.2413C47.907 36.1352 47.8569 36.0392 47.7969 35.9611C47.6127 35.7269 47.3365 35.5768 47.0542 35.4807C46.3717 35.2465 45.537 35.2525 44.8784 35.5668C44.6222 35.6909 44.388 35.857 44.2659 36.0992L44.2573 36.1172C44.2538 36.1245 44.2521 36.1279 44.2507 36.1315C44.2493 36.1349 44.2483 36.1383 44.2462 36.145L44.2399 36.1653C44.2299 36.1913 44.2239 36.2173 44.2179 36.2433L44.2179 36.2433C44.2079 36.2814 44.2039 36.3214 44.2079 36.3895C44.2119 36.4335 44.2219 36.4815 44.2459 36.5516C44.2459 36.5524 44.2484 36.5586 44.2504 36.5635L44.2504 36.5635C44.2531 36.5703 44.2549 36.5747 44.2479 36.5596C44.2539 36.5736 44.2599 36.5856 44.2659 36.5976L44.2659 36.5976L44.2659 36.5976C44.2799 36.6257 44.296 36.6537 44.312 36.6797C44.4481 36.8939 44.7063 37.062 44.9585 37.1661Z" fill="url(#paint1_linear_223_88)"/>
<defs>
<filter id="filter0_bd_223_88" x="-34" y="-45" width="152" height="152" filterUnits="userSpaceOnUse" color-interpolation-filters="sRGB">
<feFlood flood-opacity="0" result="BackgroundImageFix"/>
<feGaussianBlur in="BackgroundImageFix" stdDeviation="26"/>
<feComposite in2="SourceAlpha" operator="in" result="effect1_backgroundBlur_223_88"/>
<feColorMatrix in="SourceAlpha" type="matrix" values="0 0 0 0 0 0 0 0 0 0 0 0 0 0 0 0 0 0 127 0" result="hardAlpha"/>
<feOffset dx="6" dy="17"/>
<feGaussianBlur stdDeviation="12"/>
<feColorMatrix type="matrix" values="0 0 0 0 0.285833 0 0 0 0 0.29225 0 0 0 0 0.35 0 0 0 0.04 0"/>
<feBlend mode="normal" in2="effect1_backgroundBlur_223_88" result="effect2_dropShadow_223_88"/>
<feBlend mode="normal" in="SourceGraphic" in2="effect2_dropShadow_223_88" result="shape"/>
</filter>
<linearGradient id="paint0_linear_223_88" x1="42" y1="7" x2="42" y2="78.7931" gradientUnits="userSpaceOnUse">
<stop stop-color="white"/>
<stop offset="1" stop-color="white" stop-opacity="0"/>
</linearGradient>
<linearGradient id="paint1_linear_223_88" x1="28.1739" y1="27.1157" x2="43.6855" y2="42.3588" gradientUnits="userSpaceOnUse">
<stop stop-color="#6E91EB"/>
<stop offset="0.0001" stop-color="#6EA0EB"/>
<stop offset="1" stop-color="#6088EF"/>
</linearGradient>
</defs>
</svg>
