<svg width="96" height="96" viewBox="48 0 1 66" fill="none" xmlns="http://www.w3.org/2000/svg">
<g filter="url(#filter0_bd_223_42)">
<circle cx="42" cy="31" r="24" fill="white" fill-opacity="0.48"/>
<circle cx="42" cy="31" r="23.5" stroke="url(#paint0_linear_223_42)" stroke-opacity="0.7"/>
</g>
<path fill-rule="evenodd" clip-rule="evenodd" d="M40.9005 29.005L40 20L39.0995 29.005C39.0462 29.5377 39.4645 30 40 30C40.5354 30 40.9537 29.5377 40.9005 29.005ZM33.7853 35.7194C33.4249 34.6753 33.9792 33.5367 35.0233 33.1764L46.3667 29.2614C47.4109 28.901 48.5495 29.4553 48.9098 30.4994L50.2148 34.2806C50.5752 35.3247 50.0209 36.4633 48.9767 36.8237L37.6333 40.7386C36.5892 41.099 35.4506 40.5447 35.0903 39.5006L33.7853 35.7194ZM37.42 35.5228C37.681 35.4327 37.8196 35.1481 37.7295 34.8871C37.6394 34.626 37.3548 34.4875 37.0938 34.5776C36.8327 34.6676 36.6942 34.9523 36.7842 35.2133C36.8743 35.4744 37.159 35.6129 37.42 35.5228ZM38.3988 38.3587C38.6598 38.2686 38.7984 37.984 38.7083 37.7229C38.6182 37.4619 38.3335 37.3233 38.0725 37.4134C37.8115 37.5035 37.6729 37.7881 37.763 38.0492C37.8531 38.3102 38.1377 38.4488 38.3988 38.3587ZM40.5654 33.9083C40.6555 34.1694 40.5169 34.454 40.2559 34.5441C39.9948 34.6342 39.7102 34.4956 39.6201 34.2346C39.53 33.9735 39.6686 33.6889 39.9296 33.5988C40.1906 33.5087 40.4753 33.6473 40.5654 33.9083ZM41.2346 37.3799C41.4956 37.2899 41.6342 37.0052 41.5441 36.7442C41.454 36.4831 41.1694 36.3446 40.9084 36.4347C40.6473 36.5248 40.5088 36.8094 40.5988 37.0704C40.6889 37.3315 40.9736 37.47 41.2346 37.3799ZM43.4012 32.9296C43.4913 33.1906 43.3528 33.4753 43.0917 33.5653C42.8307 33.6554 42.546 33.5169 42.456 33.2558C42.3659 32.9948 42.5044 32.7102 42.7655 32.6201C43.0265 32.53 43.3111 32.6685 43.4012 32.9296ZM44.0705 36.4012C44.3315 36.3111 44.4701 36.0265 44.38 35.7654C44.2899 35.5044 44.0052 35.3658 43.7442 35.4559C43.4832 35.546 43.3446 35.8307 43.4347 36.0917C43.5248 36.3527 43.8094 36.4913 44.0705 36.4012ZM46.2371 31.9508C46.3272 32.2119 46.1886 32.4965 45.9276 32.5866C45.6665 32.6767 45.3819 32.5381 45.2918 32.2771C45.2017 32.0161 45.3403 31.7314 45.6013 31.6413C45.8624 31.5512 46.147 31.6898 46.2371 31.9508ZM46.9063 35.4225C47.1673 35.3324 47.3059 35.0477 47.2158 34.7867C47.1257 34.5257 46.8411 34.3871 46.5801 34.4772C46.319 34.5673 46.1805 34.8519 46.2705 35.1129C46.3606 35.374 46.6453 35.5125 46.9063 35.4225ZM43 24.5495C43 24.246 43.246 24 43.5495 24C43.8114 24 44.0369 24.1849 44.0883 24.4417L44.7844 27.9223C44.8959 28.4798 44.4695 29 43.9009 29C43.4033 29 43 28.5966 43 28.099V24.5495ZM36.4586 26C36.1939 26 35.9681 26.1913 35.9246 26.4524L35.178 30.932C35.0848 31.4911 35.5159 32 36.0827 32C36.5893 32 37 31.5893 37 31.0828V26.5414C37 26.2424 36.7576 26 36.4586 26Z" fill="url(#paint1_linear_223_42)"/>
<defs>
<filter id="filter0_bd_223_42" x="-34" y="-45" width="152" height="152" filterUnits="userSpaceOnUse" color-interpolation-filters="sRGB">
<feFlood flood-opacity="0" result="BackgroundImageFix"/>
<feGaussianBlur in="BackgroundImageFix" stdDeviation="26"/>
<feComposite in2="SourceAlpha" operator="in" result="effect1_backgroundBlur_223_42"/>
<feColorMatrix in="SourceAlpha" type="matrix" values="0 0 0 0 0 0 0 0 0 0 0 0 0 0 0 0 0 0 127 0" result="hardAlpha"/>
<feOffset dx="6" dy="17"/>
<feGaussianBlur stdDeviation="12"/>
<feColorMatrix type="matrix" values="0 0 0 0 0.285833 0 0 0 0 0.29225 0 0 0 0 0.35 0 0 0 0.04 0"/>
<feBlend mode="normal" in2="effect1_backgroundBlur_223_42" result="effect2_dropShadow_223_42"/>
<feBlend mode="normal" in="SourceGraphic" in2="effect2_dropShadow_223_42" result="shape"/>
</filter>
<linearGradient id="paint0_linear_223_42" x1="42" y1="7" x2="42" y2="78.7931" gradientUnits="userSpaceOnUse">
<stop stop-color="white"/>
<stop offset="1" stop-color="white" stop-opacity="0"/>
</linearGradient>
<linearGradient id="paint1_linear_223_42" x1="50.3248" y1="40.8486" x2="50.3248" y2="20" gradientUnits="userSpaceOnUse">
<stop stop-color="#EF4E4E"/>
<stop offset="1" stop-color="#FE8240"/>
</linearGradient>
</defs>
</svg>
