<svg width="110" height="110" viewBox="0 0 110 110" fill="none" xmlns="http://www.w3.org/2000/svg">
<g opacity="0.3" filter="url(#filter0_bi_2_2084)">
<rect x="6.21741" y="5.73914" width="98.0435" height="98.0435" rx="49.0217" fill="white" fill-opacity="0.1"/>
<rect x="6.21741" y="5.73914" width="98.0435" height="98.0435" rx="49.0217" fill="url(#paint0_linear_2_2084)" fill-opacity="0.5"/>
<rect x="6.71741" y="6.23914" width="97.0435" height="97.0435" rx="48.5217" stroke="white" stroke-opacity="0.2"/>
</g>
<mask id="mask0_2_2084" style="mask-type:alpha" maskUnits="userSpaceOnUse" x="5" y="17" width="100" height="72">
<rect x="5.73914" y="17.6957" width="98.5217" height="70.7826" fill="#C4C4C4"/>
</mask>
<g mask="url(#mask0_2_2084)">
<path fill-rule="evenodd" clip-rule="evenodd" d="M31.1875 47.4199C32.4949 46.1125 34.6146 46.1125 35.922 47.4199L49.2802 60.7781C52.4553 63.9532 57.6032 63.9532 60.7783 60.7781C63.9535 57.603 63.9535 52.4551 60.7783 49.2799L47.4202 35.9218C46.1128 34.6143 46.1128 32.4946 47.4202 31.1872C48.7276 29.8798 50.8473 29.8798 52.1547 31.1872L65.5129 44.5454C70.4887 49.5212 71.1884 57.154 67.6118 62.877L72.2765 67.5417C80.9614 76.2266 80.9614 90.3077 72.2765 98.9926C63.5916 107.678 49.5106 107.678 40.8256 98.9926L39.1347 97.3017C37.8273 95.9943 37.8273 93.8746 39.1347 92.5671C40.4421 91.2597 42.5619 91.2597 43.8693 92.5671L45.5602 94.2581C51.6303 100.328 61.4719 100.328 67.542 94.2581C73.6121 88.1879 73.6121 78.3464 67.542 72.2763L62.8772 67.6115C57.1542 71.1881 49.5215 70.4885 44.5456 65.5126L31.1875 52.1545C29.8801 50.8471 29.8801 48.7273 31.1875 47.4199Z" fill="url(#paint1_linear_2_2084)"/>
<g filter="url(#filter1_bi_2_2084)">
<mask id="path-5-inside-1_2_2084" fill="white">
<path fill-rule="evenodd" clip-rule="evenodd" d="M38.197 57.3194C35.0729 60.4436 35.0729 65.5089 38.197 68.6331L39.3038 69.7399C47.7086 78.1447 61.3354 78.1447 69.7402 69.7399C78.1449 61.3351 78.1449 47.7083 69.7402 39.3036L68.6334 38.1968C65.5092 35.0726 60.4439 35.0726 57.3197 38.1968L38.197 57.3194Z"/>
</mask>
<path fill-rule="evenodd" clip-rule="evenodd" d="M38.197 57.3194C35.0729 60.4436 35.0729 65.5089 38.197 68.6331L39.3038 69.7399C47.7086 78.1447 61.3354 78.1447 69.7402 69.7399C78.1449 61.3351 78.1449 47.7083 69.7402 39.3036L68.6334 38.1968C65.5092 35.0726 60.4439 35.0726 57.3197 38.1968L38.197 57.3194Z" fill="white" fill-opacity="0.1"/>
<path fill-rule="evenodd" clip-rule="evenodd" d="M38.197 57.3194C35.0729 60.4436 35.0729 65.5089 38.197 68.6331L39.3038 69.7399C47.7086 78.1447 61.3354 78.1447 69.7402 69.7399C78.1449 61.3351 78.1449 47.7083 69.7402 39.3036L68.6334 38.1968C65.5092 35.0726 60.4439 35.0726 57.3197 38.1968L38.197 57.3194Z" fill="url(#paint2_linear_2_2084)" fill-opacity="0.5"/>
<path d="M38.9042 67.926C36.1705 65.1924 36.1705 60.7602 38.9042 58.0265L37.4899 56.6123C33.9752 60.127 33.9752 65.8255 37.4899 69.3402L38.9042 67.926ZM40.0109 69.0328L38.9042 67.926L37.4899 69.3402L38.5967 70.447L40.0109 69.0328ZM38.5967 70.447C47.392 79.2423 61.652 79.2423 70.4473 70.447L69.0331 69.0328C61.0188 77.047 48.0252 77.047 40.0109 69.0328L38.5967 70.447ZM70.4473 70.447C79.2425 61.6517 79.2426 47.3917 70.4473 38.5965L69.0331 40.0107C77.0473 48.0249 77.0473 61.0186 69.0331 69.0328L70.4473 70.447ZM67.9263 38.9039L69.0331 40.0107L70.4473 38.5965L69.3405 37.4897L67.9263 38.9039ZM58.0268 38.9039C60.7604 36.1702 65.1926 36.1702 67.9263 38.9039L69.3405 37.4897C65.8258 33.975 60.1273 33.975 56.6126 37.4897L58.0268 38.9039ZM38.9042 58.0265L58.0268 38.9039L56.6126 37.4897L37.4899 56.6123L38.9042 58.0265Z" fill="white" fill-opacity="0.2" mask="url(#path-5-inside-1_2_2084)"/>
</g>
<g style="mix-blend-mode:multiply" opacity="0.5" filter="url(#filter2_f_2_2084)">
<rect x="35.2457" y="55.5364" width="5.73913" height="2.86956" transform="rotate(-45 35.2457 55.5364)" fill="#F2A32C"/>
</g>
<g style="mix-blend-mode:multiply" opacity="0.5" filter="url(#filter3_f_2_2084)">
<rect x="51.4784" y="39.3036" width="5.73913" height="2.86956" transform="rotate(-45 51.4784 39.3036)" fill="#F2A32C"/>
</g>
<g filter="url(#filter4_bd_2_2084)">
<path fill-rule="evenodd" clip-rule="evenodd" d="M56.5141 61.3332C56.2264 61.6208 55.7235 61.4526 55.6491 61.0438L54.075 52.3969C53.9799 51.8744 54.6426 51.5938 54.9722 52.0171L57.8078 55.6591L59.2748 54.1921C59.5624 53.9045 60.0653 54.0727 60.1397 54.4815L61.7138 63.1284C61.809 63.6509 61.1462 63.9315 60.8167 63.5082L57.9807 59.8665L56.5141 61.3332Z" fill="url(#paint3_linear_2_2084)"/>
<path fill-rule="evenodd" clip-rule="evenodd" d="M56.5141 61.3332C56.2264 61.6208 55.7235 61.4526 55.6491 61.0438L54.075 52.3969C53.9799 51.8744 54.6426 51.5938 54.9722 52.0171L57.8078 55.6591L59.2748 54.1921C59.5624 53.9045 60.0653 54.0727 60.1397 54.4815L61.7138 63.1284C61.809 63.6509 61.1462 63.9315 60.8167 63.5082L57.9807 59.8665L56.5141 61.3332Z" fill="white"/>
<path d="M57.65 55.7819L57.7891 55.9606L57.9492 55.8005L59.4162 54.3335C59.5816 54.1681 59.8954 54.2558 59.943 54.5174L61.5171 63.1642C61.5461 63.3236 61.4647 63.4387 61.3465 63.4888C61.2273 63.5393 61.0786 63.5191 60.9745 63.3853L58.1385 59.7437L57.9994 59.565L57.8393 59.7251L56.3726 61.1918C56.2072 61.3572 55.8935 61.2695 55.8459 61.0079L54.2718 52.3611C54.2427 52.2016 54.3241 52.0866 54.4423 52.0365C54.5616 51.986 54.7102 52.0062 54.8144 52.14L57.65 55.7819Z" stroke="url(#paint4_linear_2_2084)" stroke-width="0.4"/>
</g>
</g>
<defs>
<filter id="filter0_bi_2_2084" x="-5.78259" y="-6.26086" width="122.043" height="122.043" filterUnits="userSpaceOnUse" color-interpolation-filters="sRGB">
<feFlood flood-opacity="0" result="BackgroundImageFix"/>
<feGaussianBlur in="BackgroundImageFix" stdDeviation="6"/>
<feComposite in2="SourceAlpha" operator="in" result="effect1_backgroundBlur_2_2084"/>
<feBlend mode="normal" in="SourceGraphic" in2="effect1_backgroundBlur_2_2084" result="shape"/>
<feColorMatrix in="SourceAlpha" type="matrix" values="0 0 0 0 0 0 0 0 0 0 0 0 0 0 0 0 0 0 127 0" result="hardAlpha"/>
<feOffset dy="0.5"/>
<feGaussianBlur stdDeviation="1"/>
<feComposite in2="hardAlpha" operator="arithmetic" k2="-1" k3="1"/>
<feColorMatrix type="matrix" values="0 0 0 0 1 0 0 0 0 1 0 0 0 0 1 0 0 0 0.4 0"/>
<feBlend mode="normal" in2="shape" result="effect2_innerShadow_2_2084"/>
</filter>
<filter id="filter1_bi_2_2084" x="23.8539" y="23.8537" width="64.1898" height="64.1898" filterUnits="userSpaceOnUse" color-interpolation-filters="sRGB">
<feFlood flood-opacity="0" result="BackgroundImageFix"/>
<feGaussianBlur in="BackgroundImageFix" stdDeviation="6"/>
<feComposite in2="SourceAlpha" operator="in" result="effect1_backgroundBlur_2_2084"/>
<feBlend mode="normal" in="SourceGraphic" in2="effect1_backgroundBlur_2_2084" result="shape"/>
<feColorMatrix in="SourceAlpha" type="matrix" values="0 0 0 0 0 0 0 0 0 0 0 0 0 0 0 0 0 0 127 0" result="hardAlpha"/>
<feOffset dy="0.5"/>
<feGaussianBlur stdDeviation="1"/>
<feComposite in2="hardAlpha" operator="arithmetic" k2="-1" k3="1"/>
<feColorMatrix type="matrix" values="0 0 0 0 1 0 0 0 0 1 0 0 0 0 1 0 0 0 0.4 0"/>
<feBlend mode="normal" in2="shape" result="effect2_innerShadow_2_2084"/>
</filter>
<filter id="filter2_f_2_2084" x="23.2457" y="39.4782" width="30.0873" height="30.0873" filterUnits="userSpaceOnUse" color-interpolation-filters="sRGB">
<feFlood flood-opacity="0" result="BackgroundImageFix"/>
<feBlend mode="normal" in="SourceGraphic" in2="BackgroundImageFix" result="shape"/>
<feGaussianBlur stdDeviation="6" result="effect1_foregroundBlur_2_2084"/>
</filter>
<filter id="filter3_f_2_2084" x="39.4784" y="23.2454" width="30.0873" height="30.0873" filterUnits="userSpaceOnUse" color-interpolation-filters="sRGB">
<feFlood flood-opacity="0" result="BackgroundImageFix"/>
<feBlend mode="normal" in="SourceGraphic" in2="BackgroundImageFix" result="shape"/>
<feGaussianBlur stdDeviation="6" result="effect1_foregroundBlur_2_2084"/>
</filter>
<filter id="filter4_bd_2_2084" x="39.0658" y="36.8113" width="37.6573" height="41.9027" filterUnits="userSpaceOnUse" color-interpolation-filters="sRGB">
<feFlood flood-opacity="0" result="BackgroundImageFix"/>
<feGaussianBlur in="BackgroundImageFix" stdDeviation="7.5"/>
<feComposite in2="SourceAlpha" operator="in" result="effect1_backgroundBlur_2_2084"/>
<feColorMatrix in="SourceAlpha" type="matrix" values="0 0 0 0 0 0 0 0 0 0 0 0 0 0 0 0 0 0 127 0" result="hardAlpha"/>
<feOffset dx="5" dy="5"/>
<feGaussianBlur stdDeviation="5"/>
<feColorMatrix type="matrix" values="0 0 0 0 1 0 0 0 0 0.52549 0 0 0 0 0.137255 0 0 0 0.4 0"/>
<feBlend mode="normal" in2="effect1_backgroundBlur_2_2084" result="effect2_dropShadow_2_2084"/>
<feBlend mode="normal" in="SourceGraphic" in2="effect2_dropShadow_2_2084" result="shape"/>
</filter>
<linearGradient id="paint0_linear_2_2084" x1="16.3598" y1="20.5942" x2="84.2065" y2="92.6413" gradientUnits="userSpaceOnUse">
<stop stop-color="#FF967F"/>
<stop offset="1" stop-color="#FFDB59"/>
</linearGradient>
<linearGradient id="paint1_linear_2_2084" x1="0.239147" y1="56.4348" x2="110.959" y2="46.0404" gradientUnits="userSpaceOnUse">
<stop stop-color="#FFE08F"/>
<stop offset="1" stop-color="#F2A32C"/>
</linearGradient>
<linearGradient id="paint2_linear_2_2084" x1="32.5217" y1="54.7609" x2="81.0652" y2="66.9565" gradientUnits="userSpaceOnUse">
<stop stop-color="#FFB37F"/>
<stop offset="1" stop-color="#FFAD0D"/>
</linearGradient>
<linearGradient id="paint3_linear_2_2084" x1="57.2905" y1="52.3019" x2="47.5061" y2="61.6758" gradientUnits="userSpaceOnUse">
<stop stop-color="white"/>
<stop offset="1" stop-color="white" stop-opacity="0.2"/>
</linearGradient>
<linearGradient id="paint4_linear_2_2084" x1="52.3249" y1="56.0508" x2="62.6165" y2="54.5018" gradientUnits="userSpaceOnUse">
<stop stop-color="white" stop-opacity="0.25"/>
<stop offset="1" stop-color="white" stop-opacity="0"/>
</linearGradient>
</defs>
</svg>
